# generated from PmQm by Jehee Lee
:FULLY-SPECIFIED
:DEGREES
367
root 4.91494 38.865 -27.8108 -173.47 0.340027 -178.341
RightUpLeg -22.1453 8.75045 -1.11165
RightLeg 17.791 0.862172 -0.0302344
RightFoot -4.72113 -0.185334 2.64703
RightToes -0.000541893 -0.000659172 -0.000493268
Spine 4.47578 -0.631493 2.57926
Spine1 8.96795 -1.42277 5.42767
HEad 13.5411 13.9124 -11.7243
LeftShoulder1 -3.88251e-019 -0 -3.92111e-022
LeftArm -32.1139 -2.87843 -85.2199
LeftForeArm 28.0338 2.13103 1.11632
LeftHand -0.826093 -5.09267 9.43853
RightShoulder 7.45443e-017 -2.42657e-020 1.96277e-018
RightArm -25.163 -6.84494 72.0677
RightForeArm 2.49482 5.73664 5.58551
RightHand -2.16215 13.428 -13.6619
LeftUpLeg -22.122 -5.37498 6.81004
LeftLeg 15.2556 -9.22462 -1.26458
LeftFoot -3.39272 0.260711 -3.45866
LeftToes 3.91355e-005 3.11907e-005 -4.10385e-006
368
root 5.2122 39.1437 -28.3732 -174.661 -0.581329 -177.996
RightUpLeg -18.0611 7.32279 0.657826
RightLeg 14.5232 1.32717 -0.709546
RightFoot -4.22761 -0.181624 2.45815
RightToes -0.000541893 -0.000659172 -0.000493268
Spine 3.66502 -0.605024 2.65485
Spine1 7.33223 -1.34801 5.57046
HEad 16.7852 14.6559 -11.2658
LeftShoulder1 -3.88251e-019 -0 -3.92111e-022
LeftArm -32.7479 -1.81554 -85.1507
LeftForeArm 28.5212 2.06335 1.22941
LeftHand -0.820771 -4.86549 9.57515
RightShoulder 7.45443e-017 -2.42657e-020 1.96277e-018
RightArm -25.7037 -7.69822 71.8452
RightForeArm 3.90641 5.55048 5.30146
RightHand -2.11464 12.9651 -13.695
LeftUpLeg -18.3404 -1.46538 6.02059
LeftLeg 12.0944 -14.384 -0.601457
LeftFoot -2.92304 0.292091 -3.7298
LeftToes 3.91355e-005 3.11907e-005 -4.10385e-006
369
root 5.50263 39.3696 -28.9388 -175.963 -1.6252 -177.857
RightUpLeg -14.1024 5.46195 2.12672
RightLeg 11.6507 2.09213 -1.38453
RightFoot -3.94333 -0.165821 2.1496
RightToes -0.000541893 -0.000659172 -0.000493268
Spine 2.96008 -0.547951 2.63309
Spine1 5.91407 -1.2049 5.575
HEad 20.0844 15.2175 -10.8503
LeftShoulder1 -3.88251e-019 -0 -3.92111e-022
LeftArm -33.4624 -1.11042 -85.1716
LeftForeArm 28.9499 2.03784 1.51889
LeftHand -0.816542 -4.73362 9.64363
RightShoulder 7.45443e-017 -2.42657e-020 1.96277e-018
RightArm -26.1876 -8.57477 71.6175
RightForeArm 5.76743 5.48283 5.13541
RightHand -2.08696 12.5841 -13.7966
LeftUpLeg -14.6229 2.05614 5.72096
LeftLeg 8.89785 -19.0362 -0.009943660012
LeftFoot -2.45294 0.324291 -3.98251
LeftToes 3.91355e-005 3.11907e-005 -4.10385e-006
370
root 5.77422 39.5272 -29.4838 -177.316 -2.97446 -177.708
RightUpLeg -10.4212 3.98999 3.20895
RightLeg 9.27285 2.16028 -1.87461
RightFoot -3.88678 -0.140499 1.72627
RightToes -0.000541893 -0.000659172 -0.000493268
Spine 2.35912 -0.490083 2.60649
Spine1 4.70644 -1.06931 5.53091
HEad 23.0552 15.7414 -10.304
LeftShoulder1 -3.88251e-019 -0 -3.92111e-022
LeftArm -34.0315 -0.387509 -85.2386
LeftForeArm 28.9056 2.02771 1.73959
LeftHand -0.807831 -4.71611 9.55986
RightShoulder 7.45443e-017 -2.42657e-020 1.96277e-018
RightArm -26.5688 -9.60745 71.464
RightForeArm 8.4784 5.64409 5.31063
RightHand -2.05807 12.272 -13.8424
LeftUpLeg -11.3909 3.882 6.17099
LeftLeg 6.44275 -22.1355 0.272735
LeftFoot -2.21137 0.352263 -4.24533
LeftToes 3.91355e-005 3.11907e-005 -4.10385e-006
371
root 6.01982 39.6174 -29.984 -178.585 -4.5359 -177.518
RightUpLeg -7.20806 3.01281 4.00303
RightLeg 7.41609 1.47433 -2.1249
RightFoot -4.01177 -0.113849 1.2786
RightToes -0.000541893 -0.000659172 -0.000493268
Spine 1.8552 -0.413625 2.60725
Spine1 3.69634 -0.904402 5.46952
HEad 25.1159 16.4147 -9.84359
LeftShoulder1 -3.88251e-019 -0 -3.92111e-022
LeftArm -34.3158 0.43005 -85.1845
LeftForeArm 28.5701 2.04521 1.55085
LeftHand -0.812923 -4.61045 9.71364
RightShoulder 7.45443e-017 -2.42657e-020 1.96277e-018
RightArm -26.7494 -10.4962 71.324
RightForeArm 11.2955 5.73933 5.7117
RightHand -1.97298 11.9952 -13.4942
LeftUpLeg -8.93168 4.61735 6.85758
LeftLeg 5.08196 -24.4965 0.344134
LeftFoot -2.40176 0.381172 -4.692
LeftToes 3.91355e-005 3.11907e-005 -4.10385e-006
372
root 6.23307 39.6497 -30.4194 -179.549 -5.90019 -177.469
RightUpLeg -4.88856 2.55367 4.46844
RightLeg 6.41689 0.460665 -2.20404
RightFoot -4.39382 -0.0957894 0.969693
RightToes -0.000541893 -0.000659172 -0.000493268
Spine 1.39753 -0.21307 2.58175
Spine1 2.78765 -0.488615 5.36025
HEad 26.4086 17.3974 -9.73094
LeftShoulder1 -3.88251e-019 -0 -3.92111e-022
LeftArm -34.529 1.21907 -85.0793
LeftForeArm 28.7369 2.06074 1.20724
LeftHand -0.820944 -4.53744 9.87407
RightShoulder 7.45443e-017 -2.42657e-020 1.96277e-018
RightArm -26.708 -11.0046 71.1849
RightForeArm 13.2267 5.53695 5.83963
RightHand -1.92661 11.8442 -13.3
LeftUpLeg -7.31793 4.85489 7.29421
LeftLeg 4.64739 -26.142 0.402073
LeftFoot -2.92123 0.411346 -5.35024
LeftToes 3.91355e-005 3.11907e-005 -4.10385e-006
373
root 6.41579 39.6366 -30.7736 179.781 -6.88634 -177.562
RightUpLeg -3.54551 2.4355 4.71966
RightLeg 6.44656 -0.525919 -2.21986
RightFoot -5.06907 -0.086388 0.810356
RightToes -0.000541893 -0.000659172 -0.000493268
Spine 1.0171 0.159717 2.51744
Spine1 2.04276 0.271222 5.19532
HEad 27.4433 18.5998 -9.81377
LeftShoulder1 -3.88251e-019 -0 -3.92111e-022
LeftArm -34.8625 1.81828 -85.0209
LeftForeArm 29.2852 2.05814 1.05473
LeftHand -0.780554 -4.62802 9.32478
RightShoulder 7.45443e-017 -2.42657e-020 1.96277e-018
RightArm -26.5014 -11.1971 71.2084
RightForeArm 14.6958 5.1452 5.67436
RightHand -1.97137 11.7769 -13.647
LeftUpLeg -6.50199 4.77935 7.43034
LeftLeg 5.18297 -26.9959 0.376566
LeftFoot -3.71555 0.414241 -5.88363
LeftToes 3.91355e-005 3.11907e-005 -4.10385e-006
374
root 6.57393 39.5832 -31.0525 179.088 -7.89561 -177.562
RightUpLeg -2.62451 2.44553 4.99701
RightLeg 7.08398 -1.76489 -2.19453
RightFoot -5.90521 -0.0751551 0.647557
RightToes -0.000541893 -0.000659172 -0.000493268
Spine 0.810626 0.569586 2.50499
Spine1 1.64771 1.09666 5.06656
HEad 28.2295 19.7317 -9.83213
LeftShoulder1 -3.88251e-019 -0 -3.92111e-022
LeftArm -35.1527 2.28456 -84.8642
LeftForeArm 29.3885 2.06267 0.953652
LeftHand -0.707217 -4.64987 8.46048
RightShoulder 7.45443e-017 -2.42657e-020 1.96277e-018
RightArm -26.2485 -11.2256 71.4494
RightForeArm 16.497 4.64201 5.66078
RightHand -1.94879 11.5649 -13.6586
LeftUpLeg -6.24264 4.19496 7.53302
LeftLeg 6.76431 -27.8025 0.0832849
LeftFoot -4.9769 0.352007 -5.79613
LeftToes 3.91355e-005 3.11907e-005 -4.10385e-006
375
root 6.70355 39.4761 -31.2721 178.249 -9.51894 -177.298
RightUpLeg -1.82232 2.55293 5.50162
RightLeg 8.04105 -3.71626 -2.29353
RightFoot -6.88575 -0.0715448 0.637769
RightToes -0.000541893 -0.000659172 -0.000493268
Spine 0.767324 0.844158 2.65446
Spine1 1.57508 1.64573 5.12374
HEad 28.4723 20.5857 -9.9047
LeftShoulder1 -3.88251e-019 -0 -3.92111e-022
LeftArm -35.2017 2.74136 -84.6108
LeftForeArm 28.9849 2.08216 0.804839
LeftHand -0.705724 -4.57354 8.50447
RightShoulder 7.45443e-017 -2.42657e-020 1.96277e-018
RightArm -26.1039 -11.311 71.7402
RightForeArm 18.1314 4.22013 5.87883
RightHand -1.7924 11.2076 -12.8618
LeftUpLeg -6.62367 1.90165 7.87194
LeftLeg 9.55367 -27.3634 -0.878232
LeftFoot -6.65841 0.250742 -5.15428
LeftToes 3.91355e-005 3.11907e-005 -4.10385e-006
